# xmcd CD database file
#
# Track frame offsets:
#	150
#	13182
#	27196
#	40136
#	53173
#	65922
#	80838
#	95217
#	107672
#	123074
#	135320
#	148948
#	163704
#	177580
#	190393
#	203231
#
# Disc length: 2886 seconds
#
# Revision: 4
# Processed by: cddbd v1.5.2PL0 Copyright (c) Steve Scherf et al.
# Submitted via: CDex 1.51
#
DISCID=ed0b4410
DTITLE=Big Bill Broonzy - Mississippi River Blues
DYEAR=2000
DGENRE=Blues
TTITLE0=Too Too Train Blues  [1932]
TTITLE1=Worrying You Out Of My Mind  [1932]
TTITLE2=How You Want It Done  [1932]
TTITLE3=Bull Cow Blues  [1932]
TTITLE4=Long Tall Mama  [1932]
TTITLE5=Good Jelly  [1935]
TTITLE6=Rising Sun Shine On  [1935]
TTITLE7=Good Liquor Gonna Carry Me Down  [1935]
TTITLE8=Friendless Blues  [1934]
TTITLE9=Mississippi River Blues  [1934]
TTITLE10=Come Home Early  [1937]
TTITLE11=Southern Flood Blues  [1937]
TTITLE12=Horny Frog  [1937]
TTITLE13=It's Your Time Now  [1938]
TTITLE14=W.P.A. Blues  [1938]
TTITLE15=Big Billy Blues  [1946]
EXTD=Year: 2000 Id3g:   0 YEAR: 2000
EXTT0=
EXTT1=
EXTT2=
EXTT3=
EXTT4=
EXTT5=
EXTT6=
EXTT7=
EXTT8=
EXTT9=
EXTT10=
EXTT11=
EXTT12=
EXTT13=
EXTT14=
EXTT15=
PLAYORDER=
